<svg width="298" height="55" viewBox="0 0 298 55" fill="none" xmlns="http://www.w3.org/2000/svg">
<path d="M295.416 40.104C295.708 40.104 295.923 40.065 295.923 39.6943C295.923 39.5188 295.884 39.3628 295.416 39.3628H294.87V40.104H295.416ZM295.747 40.5136L296.528 41.801H295.903L295.201 40.5526H294.87V41.801H294.304V38.9141H295.377C295.923 38.9141 296.489 39.0312 296.489 39.6943C296.489 40.143 296.196 40.4356 295.747 40.5136ZM295.338 42.3276C296.45 42.3276 297.366 41.4109 297.366 40.299C297.366 39.1872 296.45 38.2704 295.338 38.2704C294.226 38.2704 293.309 39.1677 293.309 40.299C293.309 41.4304 294.226 42.3276 295.338 42.3276ZM295.338 37.7048C296.781 37.7048 297.932 38.8556 297.932 40.299C297.932 41.7425 296.781 42.8933 295.338 42.8933C293.894 42.8933 292.743 41.7425 292.743 40.299C292.743 38.8556 293.894 37.7048 295.338 37.7048ZM280.552 20.6177C281.001 18.6866 280.435 18.355 277.49 18.355C277.08 18.355 276.749 18.5695 276.651 18.9792L274.291 28.9661C274.174 29.5123 274.33 29.7074 274.74 29.7074C277.431 29.7074 278.368 29.7074 278.816 27.8543L280.513 20.6372L280.552 20.6177ZM283.732 13.8101C291.612 13.8101 294.167 17.5747 294.167 21.7295C294.167 24.2457 293.251 29.4343 288.511 32.3016C288.316 32.4187 287.906 32.6723 288.062 33.3745L289.954 41.996C290.032 42.4447 289.876 42.8543 289.33 42.8543H277.197C276.788 42.8543 276.339 42.6007 276.202 42.0351L274.681 34.9739C274.603 34.5643 274.505 34.2327 274.115 34.2327H273.706C273.296 34.2327 273.004 34.4473 272.886 35.0129L271.229 42.0351C271.15 42.4447 270.604 42.8543 270.195 42.8543H258.511C258.101 42.8543 257.809 42.4447 257.887 42.0351L264.362 14.6294C264.518 14.0052 264.772 13.8101 265.396 13.8101H283.732ZM240.721 33.1209C241.131 33.1209 241.346 32.9063 241.307 32.4967L240.565 25.2795C240.526 24.9089 240.234 24.8699 239.98 25.2795L235.728 32.4967C235.474 32.9063 235.572 33.1209 235.981 33.1209H240.721ZM255.507 42.0351C255.546 42.4447 255.175 42.8543 254.766 42.8543H243.413C242.887 42.8543 242.535 42.4837 242.516 42.0351L242.184 38.9336C242.145 38.524 241.892 38.3094 241.482 38.3094H232.685C232.275 38.3094 231.944 38.524 231.69 38.9336L229.798 42.0351C229.545 42.4447 229.096 42.8543 228.472 42.8543H224.258C223.849 42.8543 223.673 42.4447 223.927 42.0351L240.565 14.5513C240.936 13.8881 241.463 13.7126 241.892 13.7126H251.723C252.21 13.7126 252.581 14.0442 252.639 14.5513L255.526 42.0351H255.507ZM227.516 13.8101C227.926 13.8101 228.218 14.2197 228.14 14.6294L227.301 18.1404C227.223 18.55 226.677 18.9597 226.268 18.9597H217.49C217.119 18.9597 216.573 19.3693 216.495 19.7789L215.305 24.8114C215.266 25.143 215.422 25.2991 215.812 25.2991H221.216C221.625 25.2991 221.918 25.7087 221.84 26.1183L221.06 29.6294C220.981 30.039 220.435 30.4486 220.026 30.4486H214.662C214.291 30.4486 213.998 30.6046 213.92 30.8972L212.438 37.0416C212.36 37.4512 212.477 37.6657 212.887 37.6657H221.84C222.249 37.6657 222.542 38.0754 222.464 38.485L221.645 41.996C221.567 42.4057 221.021 42.8153 220.611 42.8153H198.53C198.121 42.8153 197.828 42.4057 197.906 41.996L204.382 14.5904C204.558 13.9662 204.792 13.7711 205.416 13.7711H227.535L227.516 13.8101ZM175.591 30.273L170.676 14.6294C170.52 14.1027 170.715 13.8101 171.261 13.8101H183.355C183.881 13.8101 184.252 14.1417 184.428 14.6294L187.236 23.6606L194.493 14.6294C194.902 14.1222 195.351 13.8101 196.014 13.8101H201.788C202.295 13.8101 202.373 14.1027 201.905 14.6294L188.875 30.4486L186.105 42.0546C186.027 42.4642 185.481 42.8738 185.071 42.8738H173.387C172.978 42.8738 172.685 42.4642 172.763 42.0546L175.572 30.2925L175.591 30.273ZM168.277 3.94018L167.614 4.05721C166.989 4.05721 166.346 3.6866 165.839 3.6866C165.507 3.6866 165.175 3.90116 164.922 4.3498C164.22 5.013 163.108 4.93497 162.23 5.05201C161.937 6.08582 160.787 6.71 159.87 6.82704C160.279 7.0416 160.787 7.19765 161.352 7.19765C161.606 7.19765 161.879 7.15864 162.171 7.0416C162.698 6.26137 163.732 6.12483 164.688 6.12483C166.014 6.12483 165.839 4.64239 166.755 4.64239L167.126 4.72041C167.536 4.60337 168.238 4.31079 168.238 3.94018M159.441 13.303L158.953 10.9818L157.139 10.8257L157.334 11.1573C158.621 11.2744 158.368 12.9714 159.441 13.303ZM194.61 0.29259C194.61 5.50065 187.431 6.98308 182.34 6.98308C179.785 6.98308 177.093 6.74901 174.636 6.61247V6.94408L176.937 7.84134C176.859 9.57736 174.089 9.32378 172.607 9.94797C172.9 10.3186 173.563 10.0845 173.563 10.5331V10.6502C172.568 11.762 171.164 12.1716 169.759 12.1716C168.842 12.1716 167.906 11.9961 167.028 11.6255L166.736 11.9181V12.9129C166.736 13.7321 166.521 17.1261 165.546 17.1261C164.961 17.1261 164.59 16.6385 164.063 16.3459C163.654 17.4577 163.81 19.0377 162.952 19.974C162.21 19.974 161.625 18.9792 160.982 18.7256C160.162 20.5006 159.655 22.3927 158.329 24.0117C155.852 23.602 155.364 19.6034 155.364 17.1651C155.364 16.2093 155.442 15.195 155.656 14.2393C154.701 12.8348 153.959 11.0208 153.959 9.20675C153.959 2.59428 161.021 0.624186 166.014 0.624186C171.008 0.624186 175.884 1.24837 181.034 1.24837C185.617 1.24837 190.318 0.83875 194.61 0V0.29259ZM153.452 14.0832H153.94L153.608 18.2575C152.984 18.3355 152.38 18.3355 151.716 18.3355C150.273 18.3355 148.79 18.2575 146.801 18.0819L153.452 14.0832ZM153.862 21.4369C154.642 23.5045 155.754 25.182 157.412 26.84C159.148 26.2939 159.441 24.2262 160.962 23.485L163.732 27.7763C159.402 30.5461 155.052 33.2964 151.307 36.983C149.161 33.1014 147.23 29.5513 145.494 25.8452C148.264 24.2262 150.975 22.5877 153.881 21.4369M144.889 23.9141C144.967 22.8413 145.104 21.8075 145.104 20.7347C145.104 20.3251 145.104 19.9154 145.026 19.4668C148.244 19.4668 149.61 19.8374 152.087 20.052V20.3836C149.727 21.6515 147.347 23.0949 144.909 23.9336M140.988 12.9519C145.201 10.2211 149.122 8.11442 152.926 6.18334C152.633 7.33419 152.477 8.58256 152.477 9.85044C152.477 10.7477 152.555 11.8205 152.926 12.6593L144.012 17.7698C142.9 16.1118 141.788 14.4343 140.988 12.9519ZM164.434 29.1807C164.766 29.4343 165.175 30 165.214 30.6632C153.199 36.5734 146.84 50.0714 134.454 54.4798C134.044 53.9336 133.829 53.446 133.673 52.8608C145.65 48.6085 151.755 34.9544 164.434 29.1612M142.314 45.9557C139.096 48.9791 134.883 51.3588 133.225 51.3588C132.659 51.3588 132.406 50.9102 132.406 50.4811C132.406 47.0871 136.131 45.3705 137.575 42.6007C138.901 40.0454 139.428 37.3537 140.422 34.7204C141.456 32.1261 142.412 28.8686 144.343 26.5084C146.157 30.0585 148.478 34.3498 150.156 37.9388C147.854 40.299 145.123 43.2639 142.314 45.9557ZM125.052 20.6177C125.5 18.6866 124.935 18.355 121.989 18.355C121.58 18.355 121.248 18.5695 121.17 18.9792L116.762 37.5877C116.645 38.1144 116.801 38.3289 117.211 38.3289C119.902 38.3289 120.878 38.3289 121.346 36.4759L125.052 20.6372V20.6177ZM125.969 13.8101C134.181 13.8101 137.282 19.2132 137.282 24.7529C137.282 33.7841 131.255 42.8738 120.819 42.8738H103.03C102.62 42.8738 102.328 42.4642 102.406 42.0546L108.882 14.6489C109.038 14.0247 109.291 13.8296 109.915 13.8296H125.969V13.8101ZM90.0584 20.6177C90.546 18.5891 89.9414 17.6528 88.3614 17.6528C86.5083 17.6528 86.0012 18.472 85.4355 20.9493L81.8464 36.0077C81.3978 37.9583 81.7294 39.0312 83.5044 39.0312C85.2795 39.0312 85.8646 38.2119 86.3523 36.1833L90.0584 20.6177ZM102.035 25.9037C102.035 34.8569 95.9687 43.4785 84.2066 43.4785C76.1117 43.4785 69.7138 39.4408 69.7138 30.8972C69.7138 20.3251 77.4381 13.1859 88.1273 13.1859C96.2612 13.1859 102.035 17.3212 102.035 25.9037ZM54.8114 20.6177C55.3185 18.5891 54.6943 17.6528 53.1144 17.6528C51.2613 17.6528 50.7542 18.472 50.1885 20.9493L46.5994 36.0077C46.1508 37.9583 46.4824 39.0312 48.2574 39.0312C50.0324 39.0312 50.6176 38.2119 51.1053 36.1833L54.8114 20.6177ZM66.7879 25.9037C66.7879 34.8569 60.7216 43.4785 48.9596 43.4785C40.8647 43.4785 34.4668 39.4408 34.4668 30.8972C34.4668 20.3251 42.1911 13.1859 52.8803 13.1859C61.0142 13.1859 66.7879 17.3212 66.7879 25.9037ZM28.615 15.2926C29.2002 15.6242 29.2002 16.1703 28.9466 16.5409L27.0156 19.4668C26.762 19.8374 26.4694 20.013 25.8257 19.5838C24.4603 18.7646 22.6463 18.1404 20.7542 18.1404C18.4525 18.1404 16.3069 18.8036 15.8387 20.4421L12.1716 36.0468C11.801 37.5682 12.9519 38.3094 14.5709 38.3094H15.5656C15.9753 38.3094 16.2288 38.0949 16.3069 37.6852L18.4135 28.7321C18.4915 28.3225 18.9597 27.9128 19.4473 27.9128H30.7997C31.2093 27.9128 31.5019 28.3225 31.4239 28.7321L28.2834 42.0351C28.2054 42.4447 27.6593 42.8543 27.2496 42.8543H11.0598C3.25747 42.8543 0 36.827 0 31.0533C0 18.9987 9.24576 13.1859 20.1885 13.1859C23.368 13.1859 26.1768 13.8881 28.615 15.2926Z" fill="#FEDA00"/>
</svg>
