<svg id="Capa_1" data-name="Capa 1" xmlns="http://www.w3.org/2000/svg" viewBox="0 0 446.67 84"><defs><style>.cls-1{fill:#ffdd08;}</style></defs><title>logo GY</title><path class="cls-1" d="M46,22.66a1.15,1.15,0,0,1,.46,1.73L43.7,28.5c-.35.53-.75.76-1.68.18a14.06,14.06,0,0,0-7.12-2c-3.24,0-6.25.93-6.89,3.24L22.86,51.78C22.34,53.92,24,55,26.22,55H27.6a1,1,0,0,0,1-.87l3-12.57a1.56,1.56,0,0,1,1.45-1.16H49a1,1,0,0,1,.87,1.16l-4.4,18.64A1.68,1.68,0,0,1,44,61.33H21.35c-10.94,0-15.52-8.45-15.52-16.56,0-16.9,13-25.07,28.32-25.07a23.22,23.22,0,0,1,11.81,3"/><path class="cls-1" d="M82.73,30.12c.69-2.83-.18-4.16-2.38-4.16-2.6,0-3.3,1.15-4.11,4.63l-5,21.13C70.57,54.44,71,56,73.52,56s3.3-1.16,4-4Zm16.79,7.42c0,12.56-8.51,24.66-25,24.66-11.34,0-20.32-5.67-20.32-17.66C54.18,29.72,65,19.7,80,19.7c11.41,0,19.52,5.79,19.52,17.84"/><path class="cls-1" d="M131.54,30.12c.69-2.83-.18-4.16-2.38-4.16-2.6,0-3.3,1.15-4.11,4.63l-5,21.13c-.64,2.72-.18,4.23,2.31,4.23s3.3-1.16,4-4Zm16.79,7.42c0,12.56-8.51,24.66-25,24.66C112,62.2,103,56.53,103,44.54c0-14.82,10.83-24.84,25.83-24.84,11.4,0,19.51,5.79,19.51,17.84"/><path class="cls-1" d="M181.62,30.13c.64-2.73-.17-3.19-4.28-3.19a1.09,1.09,0,0,0-1.16.87L170,53.92c-.17.75.06,1,.64,1,3.76,0,5.15,0,5.79-2.6Zm1.28-9.56c11.52,0,15.86,7.59,15.86,15.35,0,12.67-8.45,25.41-23.1,25.41h-25a.93.93,0,0,1-.86-1.15l9.08-38.45c.24-.87.59-1.16,1.45-1.16Z"/><path class="cls-1" d="M249.19,43.67,242.3,21.73c-.23-.75.06-1.16.82-1.16h17a1.57,1.57,0,0,1,1.51,1.16l3.93,12.68,10.19-12.68a2.72,2.72,0,0,1,2.15-1.16H286c.7,0,.81.41.17,1.16L267.84,43.9,264,60.18a1.7,1.7,0,0,1-1.45,1.15H246.13a.94.94,0,0,1-.87-1.15Z"/><path class="cls-1" d="M322.73,20.57a1,1,0,0,1,.87,1.16l-1.16,4.92A1.69,1.69,0,0,1,321,27.81H308.66A1.69,1.69,0,0,0,307.27,29L305.59,36c-.06.46.17.7.7.7h7.58a.94.94,0,0,1,.87,1.15l-1.1,4.93A1.68,1.68,0,0,1,312.19,44h-7.53a1,1,0,0,0-1,.64l-2.08,8.63c-.12.58.06.87.64.87h12.56a.94.94,0,0,1,.87,1.15l-1.16,4.93A1.7,1.7,0,0,1,313,61.33H282a.94.94,0,0,1-.86-1.15l9.09-38.45c.23-.87.58-1.16,1.44-1.16Z"/><path class="cls-1" d="M339.7,47.67c.58,0,.86-.29.81-.87l-1.05-10.13c0-.52-.46-.58-.81,0l-6,10.13c-.35.58-.23.87.35.87Zm20.72,12.5a1.1,1.1,0,0,1-1,1.16H343.46a1.24,1.24,0,0,1-1.28-1.16l-.46-4.34a.89.89,0,0,0-1-.87H328.41a1.56,1.56,0,0,0-1.39.87l-2.67,4.34a2.21,2.21,0,0,1-1.85,1.16h-5.91c-.58,0-.81-.58-.46-1.16l23.33-38.56a2.07,2.07,0,0,1,1.85-1.15H355.1a1.22,1.22,0,0,1,1.27,1.15Z"/><path class="cls-1" d="M396.73,30.13c.64-2.73-.17-3.19-4.29-3.19a1.07,1.07,0,0,0-1.15.87l-3.3,14c-.18.75.05,1,.63,1,3.77,0,5.1,0,5.73-2.6Zm4.46-9.56c11.06,0,14.65,5.27,14.65,11.12,0,3.53-1.28,10.83-7.94,14.82a1.21,1.21,0,0,0-.63,1.5l2.66,12.11c.12.63-.12,1.21-.87,1.21H392a1.38,1.38,0,0,1-1.39-1.15l-2.14-9.91c-.12-.57-.24-1-.81-1h-.58c-.58,0-1,.29-1.16,1.1l-2.32,9.85a1.68,1.68,0,0,1-1.44,1.15H365.81a.94.94,0,0,1-.87-1.15L374,21.73c.23-.87.58-1.16,1.45-1.16Z"/><path class="cls-1" d="M208.38,38.35c2.55,4.93,5.66,10.62,8,15.6l-.26.72c-6.85,6.76-13.65,15.62-22.84,18.06-.88.09-1.13-.58-1.34-1.24.13-4.67,5.21-7,7.18-10.91,1.86-3.38,2.28-7.39,4-10.88,1.54-3.64,2.79-7.38,4.8-10.81Z"/><path class="cls-1" d="M193.74,74.73c15.22-5.24,24.1-23,38.54-30.68,1.33-.67,2.42-1.89,3.9-2.1a3.42,3.42,0,0,1,1.13,2.11C227.12,49.87,218,59.2,209.42,67.85a47.44,47.44,0,0,1-14.61,9.09,7.53,7.53,0,0,1-1.07-2.21"/><path class="cls-1" d="M204.12,19.32c5.52-3.46,10.89-6.45,16.14-9.09-.57,2.66-1,5.9-.12,8.73l-.27.51L208.51,26h-.72a65.39,65.39,0,0,1-3.93-6.17Z"/><path class="cls-1" d="M209.38,28.57c3.7-.09,6.67.62,9.75.85v.41a62.9,62.9,0,0,1-9.87,4.9c.06-2.06.47-4.11.12-6.16"/><path class="cls-1" d="M210.12,37.41a100,100,0,0,1,11.57-6.13,20,20,0,0,0,4.9,7.56c2.37-.82,2.79-3.63,4.85-4.66l3.67,5.76-.15.41c-5.61,3.53-11.36,7.21-16.52,12.12h-.51c-2.76-4.94-5.47-9.93-7.81-15.06"/><path class="cls-1" d="M221.72,21.21,221.34,27a48.48,48.48,0,0,1-8.88-.24l-.25-.25,8.9-5.27Z"/><path class="cls-1" d="M228.66,16.92l-2.46-.26.2.46c1.8.17,1.46,2.55,2.95,3l-.69-3.16,1.25-5.79a3.9,3.9,0,0,0,3.19.27c.87-1.33,2.7-1.2,4.18-1.25,1.23-.25,1.11-2.64,2.7-2,.57-.15,1.54-.56,1.5-1.07-1.64.92-3.54-1.45-4.58.59-1,.87-2.51.82-3.7,1a3.82,3.82,0,0,1-3.29,2.46ZM225.72,6.29C231.63,1.23,240,3,247.8,2.82a104.24,104.24,0,0,0,30.19-1c.26,3-2.07,5.59-4.59,7.13-6.79,3.62-15.36,2.36-23,1.93v.46l3.18,1.24c-.06,1-1.19,1.59-2,2-1.24.51-2.73.45-4,1,.37.46,1.39.11,1.24,1-2.27,2.5-6.11,2.49-9,1.29l-.34.42c.09,2.47,0,5.18-1.42,7.23-1,.16-1.53-.72-2.31-1.08-.62,1.54-.37,3.7-1.55,5-1-.05-1.84-1.38-2.77-1.75-1.13,2.46-1.8,5.13-3.61,7.29-1.85-.11-2.77-2.38-3.53-3.82a23.74,23.74,0,0,1-.23-9.65c-1.79-2.78-3.16-6.37-1.82-9.87a10.08,10.08,0,0,1,3.46-5.27"/><path class="cls-1" d="M429.63,21.37a5.45,5.45,0,1,0,5.45,5.36,5.47,5.47,0,0,0-5.45-5.36m-.37-1.08H430l.1,0a5.88,5.88,0,0,1,2.46.68,6.42,6.42,0,0,1,3.52,4.8c0,.21.06.44.09.66v.74a.3.3,0,0,0,0,.1,6.16,6.16,0,0,1-.92,2.89,6.42,6.42,0,0,1-4.56,3.09c-.22,0-.44.06-.67.08h-.83a6.24,6.24,0,0,1-2.73-.82,6.46,6.46,0,0,1-3.26-4.66c0-.22-.05-.45-.08-.67v-.74a.36.36,0,0,1,0-.1,6.15,6.15,0,0,1,.74-2.59,6.47,6.47,0,0,1,4.73-3.39c.23,0,.45-.06.67-.08"/><path class="cls-1" d="M427.92,24.35v2.14H428c.53,0,1.06,0,1.59,0a3.31,3.31,0,0,0,.62-.09,1,1,0,0,0,.49-1.63,1.15,1.15,0,0,0-.83-.36c-.66,0-1.32,0-2,0m-1.13-.94h2.92a3.87,3.87,0,0,1,1.26.17,1.85,1.85,0,0,1,1.2,1.95,2,2,0,0,1-1.65,1.69l-.29.05,0,0h.05a2.13,2.13,0,0,1,.94.84c.5.73,1,1.48,1.48,2.24h-1.29a.15.15,0,0,1-.15-.09c-.34-.59-.67-1.18-1-1.76a5.93,5.93,0,0,0-.52-.69,1.12,1.12,0,0,0-.8-.41l-1,0v3h-1.12Z"/></svg>