<svg id="Capa_1" data-name="Capa 1" xmlns="http://www.w3.org/2000/svg" viewBox="0 0 19.95 20.47"><defs><style>.cls-1{fill:#004289;}.cls-2{fill:#fff;}</style></defs><title>telefono_flotas icon</title><circle class="cls-1" cx="10.03" cy="10.23" r="9.92"/><path class="cls-2" d="M13.17,12.16h0a4.39,4.39,0,0,0-.58,0c-.48,0-.75.12-.82.37s-.15.57-.17.66h-.05c-.34,0-1.2-.49-2.57-1.86C7.33,9.67,7.07,8.9,7.11,8.69l.67-.18c.47-.12.37-1,.32-1.39v0C8,6.44,7.88,5.57,7.44,5.57A1.89,1.89,0,0,0,5.47,7a4.19,4.19,0,0,0,.26,2.53,8.76,8.76,0,0,0,2,2.95,7.21,7.21,0,0,0,4.69,2.38h0a2.92,2.92,0,0,0,.8-.11,1.87,1.87,0,0,0,1.46-2C14.7,12.38,13.83,12.24,13.17,12.16Z"/></svg>